<svg width="1654" height="420" viewBox="0 0 1654 420" fill="none" xmlns="http://www.w3.org/2000/svg">
<path d="M494.888 205.949H530.099C542.903 205.949 554.155 204.106 563.855 200.42C573.749 196.734 581.412 191.399 586.844 184.415C592.47 177.237 595.283 168.604 595.283 158.516C595.283 146.876 592.47 137.273 586.844 129.707C581.412 122.141 573.749 116.515 563.855 112.829C554.155 109.143 542.903 107.3 530.099 107.3H468.698V311H533.591C547.947 311 560.557 308.963 571.421 304.889C582.479 300.621 591.112 294.122 597.32 285.392C603.722 276.662 606.923 265.604 606.923 252.218C606.923 242.518 604.983 234.176 601.103 227.192C597.223 220.208 591.791 214.485 584.807 210.023C578.017 205.561 570.257 202.263 561.527 200.129C552.797 197.995 543.485 196.928 533.591 196.928H494.888V215.843H531.554C537.374 215.843 542.709 216.522 547.559 217.88C552.409 219.044 556.58 221.081 560.072 223.991C563.758 226.707 566.571 230.199 568.511 234.467C570.645 238.541 571.712 243.294 571.712 248.726C571.712 256.292 569.966 262.597 566.474 267.641C562.982 272.685 558.229 276.468 552.215 278.99C546.201 281.512 539.314 282.773 531.554 282.773H503.036V135.527H527.771C537.277 135.527 545.037 137.855 551.051 142.511C557.065 147.167 560.072 153.763 560.072 162.299C560.072 167.925 558.714 172.775 555.998 176.849C553.282 180.729 549.499 183.736 544.649 185.87C539.799 188.004 534.173 189.071 527.771 189.071H494.888V205.949ZM690.035 313.91C705.555 313.91 718.844 310.903 729.902 304.889C740.96 298.875 749.981 289.854 756.965 277.826L729.902 266.768C725.634 273.946 720.299 279.281 713.897 282.773C707.495 286.265 700.026 288.011 691.49 288.011C683.342 288.011 676.358 286.265 670.538 282.773C664.912 279.281 660.644 274.237 657.734 267.641C654.824 260.851 653.369 252.606 653.369 242.906C653.563 233.206 655.115 225.058 658.025 218.462C660.935 211.866 665.203 206.822 670.829 203.33C676.455 199.838 683.245 198.092 691.199 198.092C697.795 198.092 703.518 199.547 708.368 202.457C713.412 205.367 717.292 209.441 720.008 214.679C722.918 219.917 724.373 226.125 724.373 233.303C724.373 234.661 723.985 236.407 723.209 238.541C722.627 240.481 722.045 242.033 721.463 243.197L731.066 229.811H640.274V251.345H757.838C758.032 250.569 758.129 249.308 758.129 247.562C758.323 245.816 758.42 244.167 758.42 242.615C758.42 228.259 755.704 216.037 750.272 205.949C745.034 195.667 737.468 187.81 727.574 182.378C717.68 176.946 705.652 174.23 691.49 174.23C677.328 174.23 665.009 177.14 654.533 182.96C644.057 188.586 635.909 196.637 630.089 207.113C624.463 217.589 621.65 229.908 621.65 244.07C621.65 258.038 624.463 270.26 630.089 280.736C635.715 291.212 643.669 299.36 653.951 305.18C664.427 311 676.455 313.91 690.035 313.91ZM799.476 269.387C799.476 265.119 800.446 261.53 802.386 258.62C804.52 255.71 807.624 253.479 811.698 251.927C815.772 250.181 821.107 249.308 827.703 249.308C835.269 249.308 842.447 250.278 849.237 252.218C856.027 254.158 862.429 257.262 868.443 261.53V245.525C866.697 243.391 863.69 241.063 859.422 238.541C855.154 235.825 849.722 233.497 843.126 231.557C836.724 229.617 829.061 228.647 820.137 228.647C803.453 228.647 790.552 232.527 781.434 240.287C772.316 247.853 767.757 258.135 767.757 271.133C767.757 280.251 769.891 288.011 774.159 294.413C778.427 300.815 784.15 305.665 791.328 308.963C798.506 312.261 806.266 313.91 814.608 313.91C822.368 313.91 829.934 312.552 837.306 309.836C844.872 306.926 851.08 302.658 855.93 297.032C860.974 291.212 863.496 284.034 863.496 275.498L858.84 258.038C858.84 264.634 857.191 270.454 853.893 275.498C850.789 280.348 846.618 284.034 841.38 286.556C836.336 289.078 830.71 290.339 824.502 290.339C819.652 290.339 815.287 289.563 811.407 288.011C807.721 286.459 804.811 284.131 802.677 281.027C800.543 277.729 799.476 273.849 799.476 269.387ZM789.582 212.06C791.522 210.702 794.432 209.053 798.312 207.113C802.386 204.979 807.139 203.233 812.571 201.875C818.197 200.323 824.114 199.547 830.322 199.547C834.396 199.547 838.179 199.935 841.671 200.711C845.163 201.487 848.17 202.748 850.692 204.494C853.214 206.24 855.154 208.471 856.512 211.187C858.064 213.903 858.84 217.395 858.84 221.663V311H889.686V215.552C889.686 206.628 887.261 199.159 882.411 193.145C877.561 186.937 870.868 182.184 862.332 178.886C853.99 175.588 844.29 173.939 833.232 173.939C820.816 173.939 809.758 175.685 800.058 179.177C790.552 182.669 782.792 186.258 776.778 189.944L789.582 212.06ZM948.732 177.14H917.595V311H948.732V177.14ZM988.599 210.605L1003.73 184.124C1000.82 180.438 997.232 177.916 992.964 176.558C988.696 175.006 984.137 174.23 979.287 174.23C972.497 174.23 965.901 176.655 959.499 181.505C953.291 186.355 948.15 192.951 944.076 201.293C940.196 209.441 938.256 218.85 938.256 229.52L948.732 235.631C948.732 229.229 949.411 223.7 950.769 219.044C952.321 214.194 954.746 210.411 958.044 207.695C961.342 204.979 965.61 203.621 970.848 203.621C974.728 203.621 977.929 204.203 980.451 205.367C982.973 206.531 985.689 208.277 988.599 210.605ZM1088.08 250.472L1028.13 107.3H988.554L1088.08 322.349L1187.6 107.3H1148.02L1088.08 250.472ZM1166.46 244.07C1166.46 257.65 1169.56 269.775 1175.77 280.445C1182.17 290.921 1190.8 299.166 1201.67 305.18C1212.53 311 1224.85 313.91 1238.62 313.91C1252.4 313.91 1264.62 311 1275.29 305.18C1286.15 299.166 1294.79 290.921 1301.19 280.445C1307.59 269.775 1310.79 257.65 1310.79 244.07C1310.79 230.296 1307.59 218.171 1301.19 207.695C1294.79 197.219 1286.15 189.071 1275.29 183.251C1264.62 177.237 1252.4 174.23 1238.62 174.23C1224.85 174.23 1212.53 177.237 1201.67 183.251C1190.8 189.071 1182.17 197.219 1175.77 207.695C1169.56 218.171 1166.46 230.296 1166.46 244.07ZM1198.76 244.07C1198.76 235.728 1200.5 228.356 1204 221.954C1207.49 215.552 1212.24 210.605 1218.25 207.113C1224.27 203.621 1231.06 201.875 1238.62 201.875C1246 201.875 1252.69 203.621 1258.7 207.113C1264.91 210.605 1269.76 215.552 1273.25 221.954C1276.75 228.356 1278.49 235.728 1278.49 244.07C1278.49 252.412 1276.75 259.784 1273.25 266.186C1269.76 272.394 1264.91 277.341 1258.7 281.027C1252.69 284.519 1246 286.265 1238.62 286.265C1231.06 286.265 1224.27 284.519 1218.25 281.027C1212.24 277.341 1207.49 272.394 1204 266.186C1200.5 259.784 1198.76 252.412 1198.76 244.07ZM1352.84 244.07C1352.84 235.728 1354.68 228.356 1358.36 221.954C1362.05 215.552 1367 210.508 1373.21 206.822C1379.61 203.136 1386.69 201.293 1394.45 201.293C1400.66 201.293 1406.67 202.263 1412.49 204.203C1418.31 206.143 1423.45 208.859 1427.91 212.351C1432.57 215.649 1435.96 219.529 1438.1 223.991V189.362C1433.44 184.706 1427.14 181.02 1419.18 178.304C1411.23 175.588 1402.5 174.23 1392.99 174.23C1379.22 174.23 1366.8 177.237 1355.75 183.251C1344.88 189.071 1336.25 197.219 1329.85 207.695C1323.64 218.171 1320.53 230.296 1320.53 244.07C1320.53 257.65 1323.64 269.775 1329.85 280.445C1336.25 290.921 1344.88 299.166 1355.75 305.18C1366.8 311 1379.22 313.91 1392.99 313.91C1402.5 313.91 1411.23 312.552 1419.18 309.836C1427.14 307.12 1433.44 303.434 1438.1 298.778V264.149C1435.96 268.417 1432.67 272.297 1428.2 275.789C1423.74 279.281 1418.6 281.997 1412.78 283.937C1406.96 285.877 1400.85 286.847 1394.45 286.847C1386.69 286.847 1379.61 285.004 1373.21 281.318C1367 277.632 1362.05 272.685 1358.36 266.477C1354.68 260.075 1352.84 252.606 1352.84 244.07ZM1483.89 269.387C1483.89 265.119 1484.86 261.53 1486.8 258.62C1488.94 255.71 1492.04 253.479 1496.12 251.927C1500.19 250.181 1505.53 249.308 1512.12 249.308C1519.69 249.308 1526.87 250.278 1533.66 252.218C1540.45 254.158 1546.85 257.262 1552.86 261.53V245.525C1551.12 243.391 1548.11 241.063 1543.84 238.541C1539.57 235.825 1534.14 233.497 1527.54 231.557C1521.14 229.617 1513.48 228.647 1504.56 228.647C1487.87 228.647 1474.97 232.527 1465.85 240.287C1456.73 247.853 1452.18 258.135 1452.18 271.133C1452.18 280.251 1454.31 288.011 1458.58 294.413C1462.85 300.815 1468.57 305.665 1475.75 308.963C1482.92 312.261 1490.68 313.91 1499.03 313.91C1506.79 313.91 1514.35 312.552 1521.72 309.836C1529.29 306.926 1535.5 302.658 1540.35 297.032C1545.39 291.212 1547.91 284.034 1547.91 275.498L1543.26 258.038C1543.26 264.634 1541.61 270.454 1538.31 275.498C1535.21 280.348 1531.04 284.034 1525.8 286.556C1520.75 289.078 1515.13 290.339 1508.92 290.339C1504.07 290.339 1499.71 289.563 1495.83 288.011C1492.14 286.459 1489.23 284.131 1487.1 281.027C1484.96 277.729 1483.89 273.849 1483.89 269.387ZM1474 212.06C1475.94 210.702 1478.85 209.053 1482.73 207.113C1486.8 204.979 1491.56 203.233 1496.99 201.875C1502.62 200.323 1508.53 199.547 1514.74 199.547C1518.81 199.547 1522.6 199.935 1526.09 200.711C1529.58 201.487 1532.59 202.748 1535.11 204.494C1537.63 206.24 1539.57 208.471 1540.93 211.187C1542.48 213.903 1543.26 217.395 1543.26 221.663V311H1574.1V215.552C1574.1 206.628 1571.68 199.159 1566.83 193.145C1561.98 186.937 1555.29 182.184 1546.75 178.886C1538.41 175.588 1528.71 173.939 1517.65 173.939C1505.23 173.939 1494.18 175.685 1484.48 179.177C1474.97 182.669 1467.21 186.258 1461.2 189.944L1474 212.06ZM1602.01 84.02V311H1633.44V84.02H1602.01Z" fill="#020202"/>
<path d="M220.333 151.191L133.189 150.725C125.858 150.686 121.211 158.571 124.797 164.965L137.4 184.413C145.822 197.408 160.242 205.266 175.728 205.298C191.161 205.329 205.571 197.584 214.059 184.694L226.914 165.174C231.474 159.6 227.534 151.229 220.333 151.191Z" fill="black" stroke="black" stroke-width="11"/>
<path d="M143 236.586C158.616 235.339 167.486 227.245 174.192 208.406C174.88 206.473 177.827 206.552 178.387 208.526C183.443 226.376 190.508 236.586 211.5 236.586M143 236.586C121.5 238.304 110 211.086 110 211.086M143 236.586C143 236.586 141.5 282.086 176.5 282.086C211.5 282.086 211.5 236.586 211.5 236.586M211.5 236.586C237.181 234.59 243.5 211.086 243.5 211.086" stroke="black" stroke-width="12" stroke-linecap="round"/>
<path d="M70.7431 50.3879C70.4534 49.0563 70.1227 47.7408 69.7513 46.4452C68.096 40.6709 65.6624 35.3968 62.5719 30.9314C59.482 26.4667 55.7806 22.8766 51.6538 20.4067C47.5211 17.9333 43.0487 16.6368 38.5 16.6368C33.9513 16.6368 29.4789 17.9333 25.3462 20.4067C21.2194 22.8766 17.518 26.4667 14.4281 30.9314C11.3376 35.3968 8.90401 40.6709 7.24868 46.4452C6.87095 47.7629 6.53527 49.1012 6.24209 50.4561C6.04067 51.387 5.25714 52 4.42689 52C3.33791 52 2.56209 51.0349 2.75684 50.0245C3.19618 47.745 3.73767 45.1575 4.2088 43.514C6.1256 36.8276 8.92563 30.787 12.4277 25.7267C15.9302 20.666 20.0508 16.7063 24.5269 14.0273C28.9968 11.3521 33.742 10 38.5 10C43.258 10 48.0032 11.3521 52.4731 14.0273C56.9492 16.7063 61.0698 20.666 64.5723 25.7267C68.0744 30.787 70.8744 36.8276 72.7912 43.514C73.4041 45.6522 73.9225 47.8414 74.344 50.0683C74.5256 51.0281 73.7759 52 72.6407 52C71.7719 52 70.9543 51.3588 70.7431 50.3879Z" fill="black" stroke="black" stroke-width="4"/>
<path d="M353.858 50.4272C353.571 49.0844 353.242 47.758 352.872 46.4519C351.239 40.6796 348.838 35.4066 345.788 30.9415C342.738 26.4772 339.084 22.8851 335.006 20.4127C330.923 17.9365 326.5 16.6368 322 16.6368C317.5 16.6368 313.077 17.9365 308.994 20.4127C304.916 22.8851 301.262 26.4772 298.212 30.9415C295.162 35.4066 292.761 40.6796 291.128 46.4519C290.752 47.7795 290.419 49.1282 290.128 50.4937C289.934 51.4018 289.171 52 288.362 52C287.304 52 286.549 51.0636 286.736 50.0812C287.171 47.7879 287.711 45.1672 288.181 43.5074C290.073 36.8189 292.838 30.7772 296.295 25.7167C299.752 20.6556 303.818 16.6978 308.232 14.0214C312.639 11.3489 317.314 10 322 10C326.686 10 331.361 11.3489 335.768 14.0214C340.182 16.6978 344.248 20.6556 347.705 25.7167C351.162 30.7772 353.927 36.8189 355.819 43.5074C356.43 45.6652 356.945 47.8751 357.363 50.1232C357.537 51.0564 356.807 52 355.704 52C354.858 52 354.061 51.3743 353.858 50.4272Z" fill="black" stroke="black" stroke-width="4"/>
<path d="M335.5 240.358C335.5 261.994 331.806 278.867 325.165 292.079C318.571 305.197 308.847 315.16 295.992 322.712C269.818 338.088 230.669 343.5 179.247 343.5C127.855 343.5 87.4919 338.099 60.1319 322.64C46.6704 315.034 36.4156 305.02 29.4487 291.908C22.4444 278.725 18.5 261.91 18.5 240.358C18.5 197.018 34.4555 144.852 62.9421 103.651C91.4224 62.4591 131.446 33.5 179.247 33.5C226.985 33.5 265.863 62.3872 293.219 103.524C320.591 144.685 335.5 196.887 335.5 240.358Z" stroke="black" stroke-width="17"/>
</svg>
